<?xml version="1.0" standalone="no"?>
<!DOCTYPE svg PUBLIC "-//W3C//DTD SVG 20010904//EN"
 "http://www.w3.org/TR/2001/REC-SVG-20010904/DTD/svg10.dtd">
<svg version="1.0" xmlns="http://www.w3.org/2000/svg"
 width="500.000000pt" height="500.000000pt" viewBox="0 0 500.000000 500.000000"
 preserveAspectRatio="xMidYMid meet">
<metadata>
Created by potrace 1.14, written by Peter Selinger 2001-2017
</metadata>
<g transform="translate(0.000000,500.000000) scale(0.100000,-0.100000)"
fill="#000000" stroke="none">
<path d="M2444 4689 c-32 -16 -65 -35 -74 -42 -27 -23 -100 -58 -108 -54 -4 3
-16 -1 -27 -9 -17 -13 -18 -16 -5 -24 9 -6 -6 -7 -41 -3 -32 3 -64 1 -76 -5
-15 -8 -23 -8 -33 1 -7 7 -10 7 -7 1 6 -10 -105 -67 -130 -67 -7 0 -10 -3 -8
-7 6 -10 -45 -31 -57 -24 -6 4 -8 2 -5 -4 7 -10 -77 -65 -100 -65 -7 0 -10 -4
-8 -8 3 -4 -15 -19 -39 -33 -50 -29 -210 -186 -189 -186 3 0 -4 -9 -17 -20
-22 -19 -42 -48 -56 -80 -3 -8 -10 -24 -14 -35 -5 -11 -18 -41 -29 -66 -12
-25 -21 -51 -21 -57 0 -12 -46 -91 -59 -102 -10 -8 -42 -100 -61 -174 -16 -65
-17 -106 0 -106 4 0 5 -18 3 -39 -2 -22 1 -42 6 -46 7 -4 4 -23 -8 -55 -10
-27 -16 -51 -14 -54 3 -3 -2 -12 -11 -21 -11 -11 -15 -28 -12 -53 3 -20 1 -41
-4 -48 -9 -10 -22 -64 -40 -164 -6 -33 -5 -49 6 -59 11 -13 14 -12 21 5 8 19
33 31 33 15 0 -4 -18 -30 -39 -57 -74 -93 -144 -278 -113 -298 13 -8 33 17 36
46 7 55 20 94 51 145 35 59 49 59 35 0 -4 -21 -4 -35 1 -31 13 7 11 -10 -2
-23 -8 -8 -8 -17 1 -33 6 -12 9 -28 6 -35 -3 -8 1 -21 9 -29 21 -20 37 -65 28
-79 -3 -7 -3 -9 2 -5 4 4 17 -4 28 -18 27 -34 25 -146 -2 -130 -9 6 5 -93 19
-129 12 -31 36 -28 33 4 -7 60 32 -17 53 -106 9 -37 17 -74 17 -81 0 -8 13
-23 29 -35 15 -11 28 -27 28 -34 0 -7 3 -13 8 -13 4 0 8 -53 9 -117 0 -65 3
-134 6 -153 3 -19 6 -73 7 -120 1 -47 6 -105 12 -130 5 -25 10 -60 10 -79 0
-18 8 -61 18 -95 20 -67 96 -254 112 -273 5 -7 10 -28 11 -48 1 -19 4 -30 8
-24 3 6 9 -6 13 -28 4 -21 9 -51 12 -67 4 -18 2 -26 -4 -22 -5 3 -12 -3 -15
-14 -3 -13 -10 -18 -21 -14 -19 7 -21 -7 -4 -24 10 -10 14 -38 21 -147 1 -11
5 -24 9 -30 5 -5 18 -24 31 -42 36 -52 107 -135 107 -127 0 5 35 -28 78 -74
43 -45 86 -82 95 -82 8 0 22 -6 29 -13 7 -6 40 -23 73 -35 33 -13 72 -30 86
-37 14 -8 46 -17 70 -21 24 -4 50 -13 57 -21 8 -8 23 -11 33 -8 10 4 19 3 19
-2 0 -4 17 -9 38 -10 20 0 57 -4 82 -7 42 -5 108 -7 155 -5 36 1 77 24 120 69
14 14 25 21 25 16 0 -5 16 4 35 18 22 17 35 22 35 14 0 -11 2 -11 9 0 9 15 58
42 75 42 21 0 208 99 248 131 20 16 39 29 43 29 3 0 19 13 35 30 16 16 33 30
38 30 12 0 99 100 134 153 15 23 32 47 38 54 5 7 10 17 10 24 0 12 27 64 46
89 6 8 15 26 19 39 4 13 18 35 30 47 13 13 26 33 30 44 3 11 11 20 16 20 5 0
9 9 9 20 0 11 4 20 10 20 9 0 7 24 -6 88 -3 17 -1 21 7 16 7 -4 9 -3 6 3 -7
11 38 148 55 169 5 7 7 33 5 58 -2 32 2 54 15 74 10 15 18 45 18 67 0 22 7 52
14 67 8 15 16 47 18 70 4 48 15 71 29 63 5 -4 9 1 9 9 0 9 -4 16 -10 16 -5 0
-10 5 -10 11 0 5 5 7 11 4 7 -5 10 3 8 21 -5 43 12 154 22 154 5 0 9 -6 9 -12
0 -9 4 -8 10 2 8 13 14 8 12 -11 -1 -3 6 -6 14 -6 9 0 13 6 9 15 -3 8 1 20 9
26 24 18 30 61 12 79 -9 8 -16 22 -16 29 0 9 -2 10 -8 2 -11 -18 -29 7 -27 36
2 14 -1 30 -6 36 -14 18 10 74 32 74 12 0 24 12 33 34 8 18 19 36 24 40 6 3 9
40 7 86 -1 48 2 80 7 80 6 0 8 6 5 14 -3 7 0 19 6 25 8 8 7 11 -3 11 -10 0 -9
5 4 19 9 10 20 36 23 57 3 22 10 45 16 52 6 7 11 68 13 135 1 67 6 133 12 147
15 38 16 584 1 625 -11 29 -10 36 6 51 27 27 16 122 -24 208 -17 37 -31 73
-31 81 0 7 -7 26 -15 42 -8 15 -19 53 -25 83 -10 51 -17 62 -110 155 -101 102
-212 206 -264 250 -29 23 -320 145 -348 145 -7 0 -96 28 -198 61 l-185 61
-145 3 c-80 2 -157 5 -171 8 -17 3 -47 -5 -85 -24z"/>
<path d="M3145 320 c3 -5 8 -10 11 -10 2 0 4 5 4 10 0 6 -5 10 -11 10 -5 0 -7
-4 -4 -10z"/>
</g>
</svg>
